<svg width="166" height="165" viewBox="0 0 166 165" fill="none" xmlns="http://www.w3.org/2000/svg">
<path d="M83.0001 0C105.76 0 126.37 9.22999 141.29 24.15C156.21 39.07 165.44 59.68 165.44 82.44C165.44 105.2 156.21 125.81 141.29 140.73C126.37 155.65 105.76 164.88 83.0001 164.88C60.2401 164.88 39.6301 155.65 24.7101 140.73C9.79008 125.81 0.560059 105.2 0.560059 82.44C0.560059 59.68 9.79008 39.07 24.7101 24.15C39.6301 9.22999 60.2401 0 83.0001 0ZM140.34 25.1C125.66 10.42 105.39 1.35001 83.0001 1.35001C60.6101 1.35001 40.3401 10.43 25.6601 25.1C10.9801 39.78 1.9101 60.05 1.9101 82.44C1.9101 104.83 10.9901 125.1 25.6601 139.78C40.3401 154.46 60.6101 163.53 83.0001 163.53C105.39 163.53 125.66 154.45 140.34 139.78C155.02 125.1 164.09 104.83 164.09 82.44C164.09 60.05 155.01 39.77 140.34 25.1Z" fill="white" fill-opacity="0.6"/>
<path d="M83 21.98C99.69 21.98 114.81 28.75 125.75 39.69C136.69 50.63 143.46 65.75 143.46 82.44C143.46 99.13 136.69 114.25 125.75 125.19C114.81 136.13 99.69 142.9 83 142.9C66.31 142.9 51.19 136.13 40.25 125.19C29.31 114.25 22.54 99.13 22.54 82.44C22.54 65.75 29.31 50.63 40.25 39.69C51.19 28.75 66.31 21.98 83 21.98ZM124.8 40.64C114.1 29.94 99.32 23.32 83 23.32C66.68 23.32 51.9 29.94 41.2 40.64C30.5 51.34 23.88 66.12 23.88 82.44C23.88 98.76 30.5 113.54 41.2 124.24C51.9 134.94 66.68 141.56 83 141.56C99.32 141.56 114.1 134.94 124.8 124.24C135.5 113.54 142.12 98.76 142.12 82.44C142.12 66.12 135.5 51.34 124.8 40.64Z" fill="white" fill-opacity="0.6"/>
<path d="M17.9902 87.3898L17.9603 85.7198C17.9603 85.7198 17.9103 85.7298 17.8303 85.7398C17.7403 85.7498 17.6302 85.7598 17.4902 85.7698C17.3502 85.7798 17.1903 85.7898 17.0103 85.8098C16.8303 85.8198 16.6503 85.8298 16.4603 85.8298L7.83026 85.9798L7.73022 80.4098L17.8702 80.2298L17.8403 78.5598C17.8403 78.5598 17.7903 78.5698 17.7103 78.5798C17.6203 78.5898 17.5102 78.5998 17.3702 78.6098C17.2302 78.6198 17.0703 78.6298 16.8903 78.6498C16.7103 78.6598 16.5303 78.6698 16.3403 78.6698L6.51025 78.8398L6.66028 87.6898C6.66028 87.6898 6.71023 87.6798 6.80023 87.6698C6.89023 87.6598 7.02024 87.6498 7.18024 87.6298C7.34024 87.6098 7.52027 87.5998 7.71027 87.5898C7.91027 87.5798 8.11025 87.5698 8.32025 87.5598L17.9902 87.3898ZM18.1702 74.9498L19.4703 68.2398L18.2103 67.9098C18.2103 67.9098 18.2002 68.0198 18.1902 68.2398C18.1702 68.4598 18.1302 68.7698 18.0602 69.1798L17.3303 73.1698L13.4202 72.4098L14.3903 68.0798L13.0403 67.7298L12.2603 72.1798L8.43024 71.4398L9.18024 67.8398C9.22024 67.6498 9.26024 67.4598 9.31024 67.2798C9.36024 67.0998 9.40025 66.9398 9.44025 66.7898C9.48025 66.6398 9.51028 66.5298 9.54028 66.4398C9.56028 66.3598 9.58026 66.3098 9.58026 66.3098L8.34027 65.9898L7.00024 72.8798C7.00024 72.8798 7.05026 72.8798 7.14026 72.8898C7.23026 72.8998 7.36025 72.9098 7.51025 72.9298C7.67025 72.9498 7.84028 72.9698 8.04028 72.9998C8.24028 73.0298 8.44026 73.0598 8.64026 73.0998L18.1702 74.9498ZM20.0703 65.1298L20.6102 63.5498C20.6102 63.5498 20.5602 63.5398 20.4802 63.5198C20.4002 63.4998 20.2903 63.4698 20.1403 63.4298C20.0003 63.3898 19.8502 63.3498 19.6802 63.2998C19.5102 63.2498 19.3303 63.1898 19.1503 63.1298L16.7903 62.3198L17.3303 60.7598C17.5303 60.1798 17.6203 59.6198 17.6003 59.0898C17.5903 58.5498 17.4803 58.0598 17.2803 57.6098C17.0803 57.1598 16.8103 56.7698 16.4503 56.4398C16.1003 56.1098 15.6803 55.8598 15.2003 55.6998C14.4803 55.4498 13.8102 55.3898 13.1902 55.5198C12.5702 55.6498 12.0103 55.9598 11.5303 56.4598C11.0503 56.9598 10.6503 57.6598 10.3403 58.5398L9.31024 61.5398C9.31024 61.5398 9.36026 61.5498 9.45026 61.5698C9.54026 61.5898 9.66024 61.6198 9.81024 61.6598C9.96024 61.6998 10.1303 61.7498 10.3203 61.7998C10.5103 61.8498 10.7003 61.9098 10.9003 61.9798L20.0703 65.1298ZM11.3802 59.1198C11.5502 58.6398 11.7502 58.2498 12.0002 57.9498C12.2502 57.6498 12.5102 57.4298 12.8102 57.2898C13.1002 57.1498 13.4102 57.0798 13.7402 57.0698C14.0602 57.0698 14.3903 57.1198 14.7103 57.2298C15.1603 57.3898 15.5303 57.6198 15.8203 57.9198C16.1103 58.2198 16.2902 58.5798 16.3702 58.9998C16.4502 59.4198 16.4102 59.8698 16.2402 60.3698L15.7003 61.9298L10.9802 60.3098L11.3802 59.1198ZM23.7302 49.2798L23.6202 49.4798L17.5403 49.8598C17.3003 49.8798 17.0802 49.8898 16.8702 49.8898C16.6602 49.8898 16.4902 49.8898 16.3602 49.8798C16.2302 49.8698 16.1603 49.8698 16.1603 49.8698L16.1503 49.9198C16.1503 49.9198 16.2103 49.9498 16.3303 50.0098C16.4503 50.0698 16.6102 50.1398 16.8002 50.2398C16.9902 50.3398 17.2102 50.4598 17.4402 50.5898L22.8102 53.6898C22.9402 53.7598 23.0703 53.8398 23.2103 53.9098C23.3503 53.9798 23.4803 54.0498 23.6003 54.0998C23.7203 54.1598 23.8203 54.2098 23.8903 54.2398C23.9703 54.2698 24.0103 54.2898 24.0103 54.2898L23.2903 55.5398L15.0502 50.7798C14.8702 50.6698 14.6802 50.5698 14.4902 50.4798C14.3002 50.3798 14.1203 50.2898 13.9603 50.2098C13.8003 50.1298 13.6602 50.0698 13.5602 50.0198C13.4602 49.9698 13.4003 49.9498 13.4003 49.9498L14.0602 48.6498L20.5602 48.2498C20.7802 48.2398 20.9902 48.2298 21.1802 48.2298C21.3702 48.2298 21.5203 48.2298 21.6403 48.2298C21.7603 48.2298 21.8203 48.2298 21.8203 48.2298L21.8403 48.1898C21.8403 48.1898 21.8203 48.1498 21.7803 48.0798C21.7403 48.0098 21.6802 47.9198 21.6202 47.8098C21.5602 47.6998 21.4803 47.5798 21.4103 47.4498C21.3403 47.3198 21.2703 47.1898 21.2003 47.0598L18.3403 41.3898L19.0502 39.9998L27.6503 44.9698C27.8103 45.0598 27.9802 45.1498 28.1302 45.2298C28.2902 45.3098 28.4302 45.3798 28.5602 45.4498C28.6902 45.5098 28.7902 45.5598 28.8702 45.5998C28.9502 45.6298 28.9902 45.6498 28.9902 45.6498L28.1702 47.0698L21.3203 43.1198C21.0803 42.9798 20.8702 42.8498 20.6902 42.7298C20.5202 42.6098 20.3903 42.5198 20.2903 42.4598C20.2003 42.3898 20.1503 42.3598 20.1503 42.3498L20.1003 42.3998C20.1003 42.3998 20.1302 42.4398 20.1702 42.5098C20.2202 42.5798 20.2802 42.6798 20.3602 42.7998C20.4402 42.9198 20.5202 43.0598 20.6102 43.2098C20.7002 43.3598 20.7802 43.5198 20.8602 43.6898L23.7302 49.2798ZM26.3503 32.8098C26.5803 32.5498 26.8102 32.3198 27.0502 32.0998C27.3002 31.8798 27.5303 31.6798 27.7603 31.4898C27.9903 31.2998 28.2002 31.1198 28.3802 30.9498L27.5703 29.9498C27.3603 30.1298 27.1502 30.3198 26.9202 30.4998C26.6902 30.6798 26.4702 30.8798 26.2302 31.0798C26.0002 31.2898 25.7702 31.5198 25.5502 31.7698C24.9902 32.4098 24.6202 33.0798 24.4202 33.7598C24.2202 34.4398 24.1903 35.1298 24.3203 35.8098C24.4503 36.4998 24.7303 37.1798 25.1603 37.8398C25.5903 38.4998 26.1503 39.1398 26.8503 39.7498C27.4603 40.2798 28.1003 40.6698 28.7603 40.9198C29.4203 41.1798 30.0903 41.2898 30.7603 41.2598C31.4303 41.2398 32.0803 41.0698 32.7103 40.7498C33.3403 40.4398 33.9203 39.9698 34.4603 39.3598C34.7603 39.0098 35.0002 38.6998 35.1902 38.4098C35.3802 38.1298 35.5202 37.8798 35.6102 37.6798C35.7102 37.4698 35.7702 37.3098 35.8102 37.1998C35.8402 37.0898 35.8602 37.0298 35.8602 37.0298L34.8203 36.4898C34.8203 36.4898 34.7803 36.5798 34.7103 36.7498C34.6303 36.9198 34.5002 37.1398 34.3102 37.4298C34.1302 37.7198 33.8702 38.0498 33.5602 38.4198C33.1902 38.8398 32.8103 39.1498 32.4103 39.3498C32.0103 39.5498 31.5902 39.6598 31.1702 39.6898C30.7502 39.7098 30.3303 39.6598 29.9103 39.5298C29.4903 39.3998 29.0802 39.2198 28.6702 38.9798C28.2702 38.7398 27.8803 38.4498 27.5103 38.1298C27.0503 37.7198 26.6602 37.2898 26.3602 36.8198C26.0602 36.3598 25.8502 35.8798 25.7402 35.4098C25.6302 34.9298 25.6203 34.4698 25.7103 34.0198C25.8203 33.5998 26.0203 33.1798 26.3503 32.8098ZM37.9503 35.3298L31.7203 27.9098C31.5903 27.7498 31.4503 27.5998 31.3203 27.4498C31.1903 27.2998 31.0603 27.1698 30.9503 27.0598C30.8403 26.9498 30.7502 26.8598 30.6802 26.7898C30.6102 26.7298 30.5803 26.6898 30.5803 26.6898L31.8203 25.5398L35.0602 29.3998L35.9302 28.6698C35.9002 27.8998 35.8703 27.2398 35.8403 26.6798C35.8103 26.1198 35.7802 25.6498 35.7502 25.2398C35.7202 24.8398 35.6903 24.4898 35.6503 24.1898C35.6203 23.8898 35.5803 23.6198 35.5403 23.3798C35.5003 23.1298 35.4503 22.8898 35.4103 22.6398L36.6802 21.5798C36.7302 21.8598 36.7803 22.1498 36.8203 22.4398C36.8603 22.7298 36.9002 23.0498 36.9402 23.3998C36.9702 23.7498 37.0103 24.1498 37.0303 24.5998C37.0603 25.0498 37.0803 25.5798 37.1003 26.1798C37.1203 26.7798 37.1303 27.4698 37.1503 28.2598L42.9503 29.6298C43.1203 29.6698 43.2803 29.6998 43.4603 29.7298C43.6303 29.7598 43.7902 29.7798 43.9402 29.7998C44.0902 29.8198 44.2102 29.8298 44.3002 29.8398C44.3902 29.8498 44.4402 29.8598 44.4402 29.8598L43.0203 31.1598L36.6003 29.6298L35.8303 30.2798L38.2203 33.1198C38.3403 33.2598 38.4603 33.3998 38.5803 33.5298C38.7003 33.6598 38.8103 33.7798 38.9103 33.8798C39.0103 33.9798 39.0903 34.0698 39.1503 34.1298C39.2103 34.1898 39.2402 34.2198 39.2402 34.2198L37.9503 35.3298ZM46.1003 28.4698L47.4202 27.7398L48.1702 18.1698C48.1902 17.8598 48.1902 17.5698 48.1802 17.3298C48.1702 17.0798 48.1502 16.8898 48.1302 16.7498C48.1102 16.6098 48.1003 16.5298 48.1003 16.5298L48.1603 16.5098C48.1603 16.5098 48.1802 16.5798 48.2302 16.6998C48.2802 16.8198 48.3502 16.9898 48.4402 17.1898C48.5302 17.3998 48.6503 17.6198 48.7803 17.8598L52.6403 24.8298L54.1003 24.0198C54.1003 24.0198 54.0703 23.9798 54.0303 23.9098C53.9803 23.8398 53.9203 23.7398 53.8403 23.6198C53.7603 23.4998 53.6803 23.3598 53.5803 23.2098C53.4903 23.0598 53.3902 22.8998 53.3002 22.7298L48.4902 14.0398L47.2103 14.8398L46.4703 24.2698C46.4603 24.4898 46.4603 24.6998 46.4603 24.9098C46.4603 25.1198 46.4702 25.3098 46.4802 25.4798C46.4902 25.6498 46.5003 25.7898 46.5103 25.8898C46.5203 25.9898 46.5203 26.0398 46.5303 26.0498L46.4503 26.0798C46.4503 26.0798 46.4202 25.9998 46.3602 25.8498C46.3002 25.6998 46.2202 25.4998 46.1102 25.2598C46.0002 25.0198 45.8603 24.7498 45.7003 24.4598L41.9503 17.6898L40.5203 18.5798C40.5203 18.5798 40.5503 18.6198 40.6003 18.6998C40.6503 18.7798 40.7202 18.8798 40.8102 19.0198C40.9002 19.1498 40.9903 19.2998 41.1003 19.4698C41.2003 19.6398 41.3103 19.8098 41.4103 19.9998L46.1003 28.4698ZM57.9402 8.69981C58.2902 8.57981 58.6002 8.43982 58.8702 8.27982C59.1402 8.11982 59.3803 7.93982 59.5803 7.74982C59.7803 7.56982 59.9503 7.37982 60.0903 7.18982C60.2303 7.00982 60.3402 6.83981 60.4202 6.67981L59.2703 5.95982C59.1303 6.20982 58.9903 6.43982 58.8303 6.65982C58.6803 6.87982 58.5002 7.06982 58.3002 7.23982C58.1002 7.40982 57.8703 7.53982 57.5903 7.62982C57.3003 7.71982 57.0303 7.74982 56.7703 7.73982C56.5103 7.71982 56.2603 7.66982 56.0103 7.57982C55.7603 7.48982 55.5102 7.38982 55.2502 7.26982L54.7402 8.52982C54.9002 8.60982 55.0803 8.67982 55.2903 8.74982C55.5003 8.81982 55.7503 8.86982 56.0103 8.90982C56.2803 8.94982 56.5703 8.94982 56.8903 8.91982C57.2203 8.88982 57.5702 8.80981 57.9402 8.69981ZM57.4003 22.2798L54.4103 13.0698C54.3503 12.8698 54.2803 12.6798 54.2103 12.4898C54.1403 12.2998 54.0803 12.1398 54.0103 11.9898C53.9503 11.8398 53.9002 11.7298 53.8602 11.6398C53.8202 11.5598 53.8002 11.5098 53.8002 11.5098L55.3802 10.9098L57.7703 18.2798C57.8703 18.5898 57.9503 18.8798 58.0203 19.1398C58.0803 19.3998 58.1303 19.6098 58.1603 19.7698C58.1903 19.9298 58.2103 20.0098 58.2103 20.0098L58.2903 19.9998C58.2903 19.9998 58.2902 19.9398 58.3002 19.8398C58.3102 19.7398 58.3203 19.5998 58.3503 19.4298C58.3703 19.2598 58.4002 19.0698 58.4402 18.8698C58.4802 18.6698 58.5203 18.4598 58.5803 18.2498L61.1003 9.12982L62.5103 8.58981L65.5803 18.0398C65.6403 18.2198 65.7003 18.3898 65.7603 18.5598C65.8203 18.7298 65.8802 18.8798 65.9302 19.0098C65.9902 19.1498 66.0302 19.2498 66.0602 19.3298C66.0902 19.4098 66.1102 19.4498 66.1102 19.4498L64.5203 19.9698L62.0602 12.3898C61.9802 12.1198 61.9102 11.8798 61.8602 11.6598C61.8102 11.4398 61.7702 11.2698 61.7502 11.1298C61.7302 10.9998 61.7203 10.9298 61.7203 10.9298H61.6503C61.6503 10.9298 61.6503 11.0098 61.6403 11.1498C61.6303 11.2998 61.6103 11.4898 61.5803 11.7298C61.5503 11.9798 61.4903 12.2498 61.4103 12.5498L58.8403 21.7998L57.4003 22.2798ZM78.7603 17.4598C78.7603 17.4598 78.7702 17.4098 78.8002 17.3098C78.8302 17.2098 78.8803 17.0398 78.9503 16.7998C79.0203 16.5598 79.1303 16.2198 79.2803 15.7998C79.4203 15.3798 79.6103 14.8398 79.8403 14.1998L81.5103 9.54982C81.7903 8.76982 82.0102 8.09982 82.1702 7.54982C82.3202 6.98982 82.4302 6.56982 82.4902 6.26982C82.5502 5.96982 82.5803 5.82982 82.5703 5.81982L81.1202 5.91982C81.1202 5.91982 81.1103 6.02982 81.0703 6.24982C81.0303 6.46982 80.9702 6.76982 80.8802 7.15982C80.7903 7.54982 80.6602 8.00982 80.4902 8.54982L79.5303 11.5098C79.4203 11.8398 79.3302 12.1398 79.2502 12.4098C79.1802 12.6798 79.1203 12.8998 79.0803 13.0698C79.0403 13.2398 79.0203 13.3198 79.0203 13.3198H78.9703C78.9703 13.3098 78.9302 13.2298 78.8602 13.0798C78.7902 12.9198 78.6903 12.7098 78.5703 12.4398C78.4403 12.1698 78.2902 11.8698 78.1202 11.5498L75.2803 6.28981L73.5703 6.45982C73.5703 6.45982 73.6003 6.50982 73.6603 6.59982C73.7203 6.68982 73.7903 6.80982 73.8903 6.95982C73.9803 7.10982 74.0903 7.27982 74.2003 7.46982C74.3103 7.65982 74.4303 7.85981 74.5403 8.05981L78.2302 14.7998C78.0802 15.1598 77.9402 15.4998 77.8102 15.8098C77.6902 16.1198 77.5703 16.4298 77.4703 16.7098C77.3703 16.9998 77.2702 17.2798 77.1702 17.5598L78.7603 17.4598ZM92.9003 18.0598L94.5602 18.2598C94.5602 18.2598 94.5602 18.2098 94.5602 18.1298C94.5602 18.0398 94.5703 17.9298 94.5803 17.7798C94.5903 17.6398 94.6002 17.4798 94.6102 17.2998C94.6202 17.1198 94.6403 16.9398 94.6603 16.7498L95.8702 6.88982L94.1902 6.75981C94.1902 6.75981 94.1902 6.80981 94.1902 6.89981C94.1902 6.98981 94.1802 7.11982 94.1802 7.27982C94.1702 7.43982 94.1603 7.61982 94.1503 7.81982C94.1303 8.01982 94.1103 8.21981 94.0903 8.42981L93.7003 11.6298L88.0103 10.9298L88.6202 5.98982L86.9402 5.86981C86.9402 5.86981 86.9402 5.91981 86.9402 6.00981C86.9402 6.09981 86.9302 6.22982 86.9302 6.38982C86.9202 6.54982 86.9103 6.72982 86.9003 6.91982C86.8903 7.11982 86.8703 7.31982 86.8403 7.52982L85.6603 17.1498L87.3203 17.3498C87.3203 17.3498 87.3203 17.2998 87.3203 17.2198C87.3203 17.1298 87.3303 17.0198 87.3403 16.8698C87.3503 16.7298 87.3602 16.5698 87.3702 16.3898C87.3802 16.2098 87.4002 16.0298 87.4202 15.8398L87.8802 12.1098L93.5703 12.8098L92.9003 18.0598ZM98.1902 18.9398L99.6202 19.4098L107.13 13.4398C107.37 13.2398 107.58 13.0498 107.75 12.8698C107.92 12.6898 108.05 12.5498 108.14 12.4298C108.23 12.3198 108.28 12.2598 108.28 12.2598L108.34 12.2998C108.34 12.2998 108.31 12.3598 108.25 12.4798C108.19 12.5998 108.12 12.7598 108.03 12.9698C107.94 13.1798 107.86 13.4098 107.77 13.6798L105.31 21.2598L106.9 21.7798C106.9 21.7798 106.91 21.7298 106.93 21.6498C106.95 21.5698 106.98 21.4598 107.01 21.3098C107.04 21.1698 107.09 21.0198 107.13 20.8398C107.18 20.6698 107.23 20.4898 107.29 20.3098L110.36 10.8598L108.9 10.4698L101.5 16.3598C101.34 16.4998 101.18 16.6398 101.03 16.7898C100.88 16.9298 100.75 17.0698 100.63 17.1898C100.51 17.3098 100.42 17.4098 100.35 17.4898C100.28 17.5598 100.25 17.5998 100.25 17.6098L100.18 17.5698C100.18 17.5698 100.22 17.4898 100.29 17.3498C100.36 17.2098 100.45 17.0098 100.55 16.7598C100.65 16.5098 100.75 16.2298 100.86 15.9198L103.25 8.54982L101.62 8.10982C101.62 8.10982 101.61 8.15982 101.59 8.24982C101.57 8.33982 101.54 8.46981 101.5 8.61981C101.46 8.77981 101.42 8.94982 101.37 9.13982C101.32 9.32982 101.26 9.52981 101.2 9.72981L98.1902 18.9398ZM110.24 23.2298L114.64 14.5998C114.73 14.4098 114.82 14.2298 114.9 14.0498C114.98 13.8698 115.05 13.7098 115.11 13.5598C115.17 13.4098 115.22 13.2998 115.25 13.2098C115.28 13.1198 115.3 13.0798 115.3 13.0798L118.33 14.6198C119.05 14.9998 119.59 15.4098 119.95 15.8598C120.31 16.3198 120.5 16.7898 120.53 17.2798C120.56 17.7698 120.45 18.2698 120.19 18.7698C120.01 19.1198 119.79 19.3998 119.51 19.6298C119.24 19.8598 118.94 20.0298 118.61 20.1398C118.29 20.2498 117.96 20.2998 117.63 20.2898L117.62 20.3198C117.96 20.6298 118.22 20.9798 118.37 21.3498C118.53 21.7198 118.59 22.0998 118.57 22.4898C118.55 22.8798 118.45 23.2498 118.27 23.5998C118.02 24.0798 117.72 24.4598 117.37 24.7398C117.01 25.0198 116.62 25.2098 116.18 25.2998C115.74 25.3898 115.27 25.3898 114.76 25.2898C114.26 25.1898 113.73 25.0098 113.19 24.7298L110.24 23.2298ZM115.76 20.0298L114.06 19.1598L112.15 22.9098L113.84 23.7698C114.24 23.9698 114.63 24.0798 115.01 24.0898C115.39 24.0998 115.74 24.0098 116.05 23.8098C116.37 23.6098 116.63 23.3098 116.84 22.8998C117.03 22.5298 117.11 22.1598 117.09 21.7998C117.07 21.4398 116.95 21.1098 116.72 20.7998C116.5 20.4998 116.18 20.2398 115.76 20.0298ZM117.65 15.5698L116.25 14.8598L114.59 18.1198L116.99 19.3398C116.99 19.3398 117.03 19.3398 117.11 19.3298C117.19 19.3198 117.29 19.2998 117.43 19.2598C117.56 19.2198 117.7 19.1598 117.86 19.0798C118.02 18.9998 118.17 18.8798 118.31 18.7398C118.46 18.5998 118.59 18.4098 118.71 18.1898C118.99 17.6298 119.04 17.1398 118.86 16.7098C118.67 16.2598 118.27 15.8798 117.65 15.5698ZM119.16 28.4498L124.76 32.3698L125.57 31.3498C125.57 31.3498 125.47 31.2998 125.28 31.1998C125.09 31.0898 124.82 30.9298 124.47 30.6998L121.12 28.4198L123.41 25.1598L126.97 27.8098L127.84 26.7098L124.09 24.1798L126.33 20.9798L129.31 23.1298C129.47 23.2498 129.62 23.3598 129.77 23.4798C129.92 23.5998 130.05 23.6998 130.17 23.7998C130.29 23.8998 130.38 23.9698 130.45 24.0298C130.52 24.0898 130.55 24.1198 130.55 24.1198L131.35 23.1198L125.6 19.0998C125.6 19.0998 125.58 19.1398 125.53 19.2298C125.48 19.3098 125.42 19.4198 125.34 19.5498C125.26 19.6898 125.17 19.8398 125.06 19.9998C124.96 20.1698 124.84 20.3398 124.72 20.5098L119.16 28.4498ZM127.11 34.3698L134.08 27.6398C134.23 27.4998 134.37 27.3498 134.51 27.2098C134.64 27.0698 134.76 26.9398 134.87 26.8198C134.97 26.6998 135.06 26.6098 135.12 26.5398C135.18 26.4698 135.21 26.4298 135.21 26.4298L137.42 28.7098C138.07 29.3798 138.5 30.0498 138.73 30.7098C138.96 31.3698 138.98 32.0098 138.81 32.6198C138.64 33.2298 138.28 33.7998 137.73 34.3298C137.36 34.6798 136.95 34.9398 136.5 35.1098C136.05 35.2798 135.58 35.3498 135.08 35.3198C134.59 35.2898 134.1 35.1598 133.62 34.9298C133.14 34.6998 132.68 34.3698 132.25 33.9298L131.1 32.7398L129.31 34.4698C129.17 34.5998 129.05 34.7298 128.92 34.8598C128.8 34.9898 128.69 35.1098 128.59 35.2098C128.49 35.3198 128.42 35.3998 128.36 35.4698C128.31 35.5298 128.28 35.5698 128.28 35.5698L127.11 34.3698ZM136.42 29.3498L135.54 28.4398L131.95 31.9098L133.1 33.0998C133.47 33.4798 133.85 33.7198 134.26 33.8398C134.67 33.9598 135.07 33.9598 135.47 33.8398C135.87 33.7198 136.25 33.4998 136.59 33.1698C136.84 32.9298 137.03 32.6698 137.18 32.3798C137.32 32.0898 137.4 31.7798 137.41 31.4598C137.42 31.1298 137.34 30.7898 137.19 30.4398C137.02 30.0798 136.77 29.7198 136.42 29.3498ZM144.75 39.1898C144.95 39.4698 145.13 39.7498 145.28 40.0398C145.44 40.3298 145.58 40.5998 145.71 40.8698C145.84 41.1398 145.97 41.3798 146.09 41.5998L147.25 41.0398C147.12 40.7998 146.99 40.5398 146.86 40.2798C146.73 40.0198 146.59 39.7498 146.45 39.4798C146.3 39.2098 146.13 38.9298 145.93 38.6598C145.43 37.9698 144.87 37.4598 144.24 37.1098C143.62 36.7598 142.96 36.5798 142.26 36.5498C141.56 36.5198 140.84 36.6398 140.09 36.9098C139.35 37.1798 138.6 37.5898 137.85 38.1298C137.2 38.6098 136.68 39.1398 136.28 39.7298C135.88 40.3198 135.62 40.9398 135.49 41.5998C135.36 42.2598 135.38 42.9298 135.55 43.6098C135.71 44.2898 136.04 44.9698 136.51 45.6298C136.78 45.9998 137.03 46.2998 137.27 46.5498C137.5 46.7898 137.71 46.9898 137.89 47.1298C138.07 47.2698 138.21 47.3698 138.31 47.4298C138.41 47.4898 138.46 47.5198 138.46 47.5198L139.22 46.6298C139.22 46.6298 139.14 46.5698 139 46.4598C138.86 46.3398 138.66 46.1598 138.42 45.9198C138.18 45.6798 137.91 45.3598 137.63 44.9598C137.31 44.5098 137.09 44.0598 136.98 43.6298C136.87 43.1898 136.86 42.7598 136.93 42.3498C137 41.9398 137.15 41.5398 137.37 41.1598C137.59 40.7798 137.86 40.4198 138.19 40.0798C138.52 39.7398 138.88 39.4298 139.28 39.1398C139.78 38.7798 140.29 38.4998 140.81 38.3098C141.33 38.1198 141.84 38.0298 142.32 38.0198C142.81 38.0198 143.26 38.1098 143.68 38.2998C144.1 38.4998 144.45 38.7898 144.75 39.1898ZM139.52 50.1898L148.07 45.6398C148.25 45.5398 148.43 45.4398 148.6 45.3398C148.77 45.2398 148.92 45.1498 149.06 45.0598C149.19 44.9698 149.3 44.8998 149.38 44.8498C149.46 44.7998 149.5 44.7698 149.5 44.7698L150.36 46.2198L143.52 49.8598C143.23 50.0098 142.96 50.1398 142.72 50.2498C142.47 50.3598 142.27 50.4398 142.12 50.4898C141.97 50.5498 141.89 50.5798 141.89 50.5798L141.91 50.6598C141.91 50.6598 141.97 50.6598 142.07 50.6498C142.17 50.6398 142.31 50.6398 142.48 50.6298C142.65 50.6198 142.84 50.6198 143.05 50.6198C143.26 50.6198 143.47 50.6298 143.69 50.6398L153.11 51.5398L153.89 52.8298L145.12 57.4898C144.95 57.5798 144.79 57.6698 144.64 57.7598C144.49 57.8498 144.35 57.9298 144.23 58.0098C144.11 58.0898 144.01 58.1498 143.94 58.1998C143.87 58.2498 143.83 58.2698 143.83 58.2698L143.05 56.7998L150.09 53.0598C150.34 52.9298 150.56 52.8198 150.77 52.7298C150.98 52.6398 151.14 52.5698 151.27 52.5298C151.4 52.4798 151.46 52.4598 151.46 52.4598L151.44 52.3998C151.44 52.3998 151.36 52.4098 151.22 52.4298C151.08 52.4498 150.88 52.4598 150.64 52.4698C150.39 52.4798 150.11 52.4698 149.8 52.4498L140.25 51.5298L139.52 50.1898ZM145.5 64.0398L145.96 65.6398C145.96 65.6398 146 65.6198 146.08 65.5898C146.16 65.5598 146.27 65.5198 146.4 65.4698C146.53 65.4198 146.69 65.3698 146.85 65.3098C147.02 65.2498 147.19 65.1998 147.38 65.1498L155.73 62.7598L156.29 64.9398C156.35 65.1498 156.39 65.3598 156.43 65.5498C156.47 65.7398 156.5 65.8998 156.52 66.0198C156.54 66.1398 156.55 66.2098 156.55 66.2098L157.83 65.9098L155.41 57.4698L154.15 57.7798C154.15 57.7798 154.17 57.8298 154.21 57.9298C154.25 58.0298 154.3 58.1698 154.37 58.3498C154.43 58.5298 154.5 58.7398 154.58 58.9898L155.29 61.2298L145.5 64.0398ZM147.2 71.2698L148.15 78.0398L149.44 77.9398C149.44 77.9398 149.41 77.8298 149.35 77.6198C149.3 77.4098 149.23 77.0998 149.16 76.6898L148.55 72.6898L152.5 72.1398L152.99 76.5498L154.38 76.4398L153.67 71.9698L157.54 71.4298L158 75.0798C158.02 75.2798 158.04 75.4698 158.06 75.6498C158.08 75.8398 158.09 75.9998 158.1 76.1498C158.11 76.2998 158.12 76.4198 158.12 76.5098C158.12 76.5998 158.13 76.6398 158.13 76.6498L159.41 76.5498L158.43 69.5998C158.43 69.5998 158.38 69.6098 158.29 69.6398C158.2 69.6598 158.08 69.6898 157.93 69.7198C157.78 69.7598 157.6 69.7898 157.41 69.8298C157.22 69.8698 157.02 69.8998 156.81 69.9298L147.2 71.2698ZM148.09 83.4698L148.06 85.1398C148.06 85.1398 148.11 85.1398 148.19 85.1298C148.28 85.1198 148.39 85.1198 148.54 85.1098C148.68 85.0998 148.84 85.0998 149.02 85.0898C149.2 85.0898 149.38 85.0798 149.57 85.0898L158.25 85.2398L158.15 87.4898C158.14 87.7098 158.13 87.9198 158.11 88.1098C158.09 88.3098 158.07 88.4698 158.06 88.5898C158.04 88.7098 158.04 88.7798 158.04 88.7798L159.35 88.8698L159.5 80.0898L158.2 80.0198C158.2 80.0198 158.21 80.0798 158.22 80.1798C158.23 80.2898 158.24 80.4398 158.25 80.6298C158.26 80.8198 158.26 81.0398 158.27 81.2998L158.29 83.6498L148.09 83.4698Z" fill="white" fill-opacity="0.6"/>
<path d="M38.0004 132.1C38.1504 131.52 38.1104 130.91 37.8804 130.26C37.6504 129.6 37.2205 128.94 36.5905 128.25L34.4204 125.93C34.4204 125.93 34.3904 125.97 34.3304 126.04C34.2704 126.11 34.1804 126.2 34.0804 126.32C33.9704 126.44 33.8504 126.57 33.7104 126.7C33.5704 126.84 33.4305 126.98 33.2805 127.13L26.1904 133.74L27.3304 134.96C27.3304 134.96 27.3604 134.92 27.4204 134.86C27.4804 134.8 27.5605 134.71 27.6505 134.6C27.7505 134.49 27.8604 134.38 27.9804 134.25C28.1004 134.12 28.2404 133.99 28.3704 133.86L30.5604 131.82L32.0004 133.36L30.4105 138.38L31.7205 139.66C31.7205 139.66 31.7304 139.58 31.7604 139.44C31.7904 139.3 31.8204 139.12 31.8704 138.9C31.9204 138.68 31.9804 138.45 32.0504 138.2L33.2805 134.08C33.6605 134.31 34.0604 134.45 34.4904 134.52C34.9104 134.58 35.3404 134.55 35.7704 134.41C36.2004 134.28 36.6205 134.02 37.0305 133.64C37.5405 133.19 37.8504 132.68 38.0004 132.1ZM36.5604 131.5C36.4404 131.87 36.2204 132.22 35.8804 132.53C35.5504 132.84 35.1904 133.03 34.8104 133.12C34.4304 133.21 34.0405 133.18 33.6505 133.05C33.2605 132.91 32.8804 132.65 32.5204 132.27L31.3904 131.06L34.7104 127.97L35.5704 128.89C36.0304 129.39 36.3404 129.86 36.4904 130.29C36.6504 130.72 36.6704 131.12 36.5604 131.5Z" fill="white" fill-opacity="0.6"/>
<path d="M44.3901 141.51C44.2601 141.57 44.1301 141.63 43.9901 141.7C43.8501 141.77 43.7301 141.83 43.6201 141.89C43.5101 141.95 43.4201 142 43.3501 142.04C43.2801 142.08 43.2401 142.1 43.2401 142.1L43.2001 142.07C43.2001 142.07 43.2101 142.01 43.2101 141.89C43.2201 141.77 43.22 141.62 43.23 141.43C43.24 141.24 43.2401 141.03 43.2401 140.81L43.1801 134.3L41.9101 133.57C41.9101 133.57 41.8801 133.62 41.8301 133.72C41.7801 133.82 41.7001 133.95 41.6201 134.11C41.5301 134.27 41.4301 134.44 41.3201 134.63C41.2101 134.82 41.1001 135 40.9901 135.17L35.8101 143.15L37.0201 143.94C37.0201 143.94 37.0401 143.9 37.0801 143.82C37.1201 143.75 37.17 143.65 37.23 143.53C37.29 143.41 37.3701 143.29 37.4401 143.15C37.5201 143.01 37.6001 142.88 37.6801 142.76L41.0601 137.56C41.2101 137.34 41.3401 137.13 41.4501 136.94C41.5601 136.75 41.6501 136.6 41.7101 136.48C41.7701 136.36 41.8101 136.3 41.8101 136.3L41.86 136.31C41.86 136.31 41.8501 136.38 41.8401 136.51C41.8201 136.64 41.81 136.81 41.8 137.02C41.79 137.23 41.7901 137.45 41.7901 137.69L41.8501 143.78L42.0401 143.9L47.7901 141.35C47.9601 141.28 48.1201 141.2 48.2801 141.12C48.4301 141.04 48.5801 140.97 48.7001 140.9C48.8301 140.83 48.9201 140.77 49.0001 140.73C49.0701 140.69 49.11 140.66 49.11 140.66L49.1601 140.71C49.1601 140.71 49.12 140.76 49.05 140.84C48.98 140.93 48.8801 141.06 48.7601 141.22C48.6301 141.39 48.5001 141.59 48.3401 141.83L44.0301 148.46L45.4001 149.35C45.4001 149.35 45.4201 149.31 45.4601 149.23C45.5001 149.15 45.5601 149.05 45.6301 148.93C45.7001 148.8 45.7801 148.67 45.8701 148.51C45.9601 148.36 46.0601 148.2 46.1601 148.04L51.5701 139.71L50.2201 138.93L44.3901 141.51Z" fill="white" fill-opacity="0.6"/>
<path d="M67.0302 145.88C67.0102 145.97 66.9902 146.1 66.9602 146.25C66.9302 146.41 66.8902 146.58 66.8502 146.77C66.8002 146.96 66.7502 147.16 66.6902 147.36L65.1402 152.76C65.0202 153.19 64.8502 153.57 64.6302 153.9C64.4102 154.22 64.1502 154.49 63.8402 154.69C63.5302 154.89 63.1902 155.01 62.8002 155.06C62.4202 155.11 61.9902 155.07 61.5402 154.94C61.0602 154.8 60.6602 154.61 60.3502 154.36C60.0302 154.11 59.8002 153.82 59.6402 153.49C59.4802 153.16 59.4002 152.79 59.3902 152.4C59.3802 152.01 59.4402 151.6 59.5602 151.16L61.5902 144.07L59.9502 143.68C59.9502 143.68 59.9402 143.73 59.9302 143.82C59.9102 143.91 59.8902 144.04 59.8602 144.19C59.8302 144.35 59.7902 144.52 59.7402 144.71C59.7002 144.9 59.6402 145.1 59.5902 145.3L58.0402 150.69C57.8602 151.32 57.7902 151.92 57.8202 152.48C57.8602 153.04 58.0002 153.55 58.2402 154.01C58.4902 154.47 58.8402 154.88 59.2902 155.21C59.7502 155.55 60.3102 155.82 60.9702 156.01C61.7102 156.22 62.3902 156.3 63.0002 156.24C63.6102 156.18 64.1502 156.02 64.6102 155.75C65.0802 155.48 65.4702 155.11 65.7902 154.67C66.1102 154.22 66.3502 153.71 66.5102 153.13L68.5402 146.04L67.0502 145.7C67.0502 145.74 67.0402 145.79 67.0302 145.88Z" fill="white" fill-opacity="0.6"/>
<path d="M19.8402 116.26C20.2902 116.45 20.7602 116.55 21.2402 116.55C21.7202 116.55 22.2002 116.45 22.6602 116.24C23.3502 115.93 23.8902 115.52 24.2602 115C24.6302 114.48 24.8202 113.88 24.8402 113.18C24.8502 112.48 24.6702 111.7 24.2902 110.85L23.0002 107.95C23.0002 107.95 22.9602 107.97 22.8802 108.02C22.8002 108.06 22.6902 108.13 22.5502 108.2C22.4102 108.28 22.2502 108.36 22.0802 108.44C21.9002 108.53 21.7202 108.62 21.5302 108.7L12.6802 112.64L13.3602 114.16C13.3602 114.16 13.4002 114.14 13.4702 114.1C13.5502 114.06 13.6502 114 13.7702 113.93C13.9002 113.86 14.0402 113.79 14.2002 113.71C14.3602 113.63 14.5302 113.55 14.7002 113.47L16.9802 112.46L17.6502 113.97C17.9002 114.53 18.2202 115 18.5902 115.38C18.9702 115.77 19.3902 116.06 19.8402 116.26ZM22.6202 109.96L23.1302 111.11C23.3402 111.58 23.4502 112 23.4802 112.39C23.5002 112.78 23.4602 113.12 23.3402 113.43C23.2202 113.73 23.0402 114 22.8102 114.22C22.5802 114.44 22.3002 114.62 21.9902 114.76C21.5502 114.95 21.1302 115.04 20.7102 115.01C20.2902 114.99 19.9102 114.84 19.5702 114.59C19.2302 114.34 18.9502 113.97 18.7302 113.49L18.0602 111.98L22.6202 109.96Z" fill="white" fill-opacity="0.6"/>
<path d="M79.7599 147.72C79.7599 147.81 79.7599 147.94 79.7599 148.1C79.7599 148.26 79.7499 148.44 79.7499 148.64C79.7399 148.84 79.73 149.04 79.71 149.25L79.1799 155.33C79.1699 155.49 79.16 155.66 79.16 155.84C79.16 156.01 79.16 156.18 79.16 156.33C79.16 156.48 79.1699 156.6 79.1699 156.69C79.1699 156.78 79.1799 156.83 79.1799 156.83L79.1299 156.84C79.1299 156.84 79.11 156.79 79.08 156.71C79.04 156.62 78.9999 156.51 78.9399 156.38C78.8799 156.24 78.8199 156.1 78.7399 155.95C78.6699 155.8 78.5899 155.65 78.5099 155.51L73.78 146.98L72.35 146.94C72.35 146.94 72.35 146.99 72.35 147.08C72.35 147.17 72.35 147.3 72.35 147.46C72.35 147.62 72.34 147.8 72.34 148C72.33 148.2 72.3199 148.4 72.2999 148.61L71.46 158.26L72.91 158.39C72.91 158.39 72.91 158.34 72.91 158.26C72.91 158.17 72.91 158.06 72.91 157.91C72.91 157.77 72.9199 157.61 72.9299 157.43C72.9399 157.25 72.95 157.07 72.96 156.88L73.5099 150.65C73.5199 150.54 73.52 150.41 73.52 150.25C73.52 150.09 73.52 149.94 73.52 149.78C73.52 149.63 73.5099 149.5 73.5099 149.39C73.5099 149.28 73.5099 149.23 73.5099 149.23H73.5599C73.5599 149.23 73.5799 149.28 73.6299 149.38C73.6699 149.48 73.72 149.6 73.79 149.74C73.85 149.88 73.9199 150.03 73.9899 150.17C74.0599 150.31 74.1199 150.44 74.1699 150.53L78.9199 159.06L80.2599 159.01L81.2599 147.61L79.78 147.56C79.75 147.58 79.7499 147.63 79.7599 147.72Z" fill="white" fill-opacity="0.6"/>
<path d="M24.62 121.51L27.82 119.27L29.89 122.31C30 122.47 30.1 122.63 30.2 122.79C30.3 122.95 30.39 123.09 30.46 123.22C30.54 123.35 30.6 123.45 30.64 123.53C30.68 123.61 30.7 123.65 30.71 123.65L31.8 122.98L27.78 117.23C27.78 117.23 27.74 117.26 27.67 117.33C27.6 117.39 27.5 117.47 27.38 117.57C27.26 117.67 27.12 117.78 26.96 117.9C26.8 118.02 26.64 118.14 26.47 118.26L18.52 123.83L22.44 129.43L23.55 128.75C23.55 128.75 23.47 128.67 23.33 128.51C23.18 128.34 22.99 128.1 22.74 127.76L20.38 124.47L23.65 122.18L26.09 125.89L27.28 125.16L24.62 121.51Z" fill="white" fill-opacity="0.6"/>
<path d="M139.82 133.18C139.71 133.09 139.59 132.99 139.45 132.87C139.31 132.75 139.18 132.63 139.04 132.5L131.78 125.73L130.69 127.02C130.69 127.02 130.73 127.05 130.81 127.11C130.88 127.17 130.98 127.25 131.11 127.35C131.24 127.45 131.37 127.56 131.52 127.69C131.67 127.82 131.83 127.95 131.98 128.09L139.07 134.7L140.21 133.48C140.21 133.48 140.17 133.45 140.11 133.4C140.02 133.34 139.93 133.27 139.82 133.18Z" fill="white" fill-opacity="0.6"/>
<path d="M133 136.37C132.67 136 132.33 135.74 131.98 135.58C131.63 135.43 131.26 135.36 130.88 135.37C130.5 135.38 130.1 135.45 129.69 135.56C129.27 135.68 128.84 135.82 128.39 136C127.91 136.18 127.47 136.31 127.09 136.37C126.7 136.44 126.35 136.43 126.04 136.34C125.73 136.25 125.44 136.06 125.19 135.77C124.98 135.52 124.85 135.26 124.82 134.97C124.78 134.68 124.84 134.39 124.98 134.09C125.13 133.79 125.37 133.49 125.7 133.2C125.92 133.01 126.13 132.85 126.33 132.7C126.53 132.56 126.73 132.43 126.92 132.31C127.11 132.19 127.3 132.07 127.5 131.95C127.69 131.83 127.89 131.69 128.09 131.54L127.41 130.41C127.19 130.57 126.98 130.71 126.78 130.83C126.58 130.95 126.39 131.07 126.2 131.19C126.01 131.31 125.82 131.44 125.62 131.58C125.42 131.72 125.21 131.88 124.99 132.07C124.39 132.59 123.97 133.14 123.71 133.71C123.45 134.28 123.35 134.84 123.42 135.4C123.49 135.95 123.73 136.47 124.13 136.94C124.43 137.28 124.75 137.54 125.08 137.7C125.42 137.86 125.76 137.96 126.12 137.98C126.48 138 126.85 137.97 127.22 137.89C127.6 137.81 127.98 137.68 128.37 137.53C128.75 137.38 129.12 137.24 129.45 137.13C129.79 137.02 130.11 136.95 130.4 136.93C130.69 136.9 130.97 136.93 131.22 137.02C131.47 137.11 131.7 137.27 131.91 137.5C132.17 137.81 132.31 138.13 132.31 138.48C132.31 138.83 132.2 139.19 131.98 139.56C131.76 139.93 131.43 140.3 131.01 140.66C130.71 140.91 130.43 141.14 130.15 141.33C129.88 141.52 129.63 141.68 129.41 141.8C129.19 141.92 129.02 142.02 128.89 142.08C128.76 142.14 128.7 142.17 128.69 142.17L129.51 143.11C129.51 143.11 129.57 143.09 129.68 143.04C129.79 142.99 129.95 142.92 130.16 142.81C130.37 142.7 130.61 142.55 130.9 142.35C131.18 142.16 131.49 141.91 131.84 141.62C132.53 141.01 133.04 140.4 133.36 139.79C133.68 139.17 133.8 138.57 133.74 137.99C133.69 137.43 133.44 136.88 133 136.37Z" fill="white" fill-opacity="0.6"/>
<path d="M146.05 125.06C145.93 124.99 145.79 124.9 145.64 124.81C145.49 124.71 145.34 124.61 145.18 124.51L138.07 119.53L139.41 117.72C139.54 117.54 139.67 117.38 139.79 117.23C139.91 117.08 140.02 116.96 140.1 116.86C140.18 116.77 140.22 116.72 140.23 116.72L139.19 115.91L134.15 123.1L135.18 123.88C135.18 123.88 135.21 123.83 135.26 123.74C135.31 123.65 135.39 123.52 135.49 123.35C135.59 123.19 135.71 123 135.85 122.79L137.14 120.83L145.49 126.68L146.45 125.31C146.45 125.31 146.41 125.29 146.34 125.25C146.28 125.19 146.18 125.13 146.05 125.06Z" fill="white" fill-opacity="0.6"/>
<path d="M88.3101 158.32C88.2901 158.18 88.2601 158.02 88.2401 157.84C88.2201 157.66 88.1901 157.48 88.1801 157.29L87.3101 147.4L85.6401 147.63C85.6401 147.63 85.6501 147.68 85.6701 147.77C85.6901 147.86 85.7101 147.99 85.7401 148.15C85.7701 148.31 85.7901 148.48 85.8201 148.68C85.8501 148.88 85.8701 149.08 85.8901 149.29L86.7301 158.94L88.3901 158.79C88.3901 158.79 88.3801 158.74 88.3701 158.66C88.3501 158.58 88.3301 158.47 88.3101 158.32Z" fill="white" fill-opacity="0.6"/>
<path d="M152.45 114.43C152.37 114.4 152.26 114.36 152.12 114.31C151.98 114.26 151.84 114.2 151.67 114.14C151.5 114.07 151.33 114.01 151.16 113.93L148.41 112.7L145.53 108.7C145.19 108.21 144.88 107.79 144.61 107.47C144.34 107.14 144.12 106.89 143.96 106.73C143.8 106.56 143.72 106.48 143.72 106.48L143.08 107.92C143.09 107.92 143.21 108.04 143.47 108.3C143.72 108.56 144.06 108.95 144.5 109.49L147.12 112.77L140.6 113.31L139.94 115C139.94 115 139.99 114.99 140.09 114.97C140.19 114.95 140.32 114.93 140.49 114.91C140.66 114.88 140.85 114.86 141.05 114.83C141.26 114.8 141.47 114.77 141.69 114.75L147.8 114.17L151.91 116L152.59 114.48C152.57 114.47 152.53 114.46 152.45 114.43Z" fill="white" fill-opacity="0.6"/>
<path d="M125.21 145.77C125.01 145.67 124.79 145.56 124.57 145.44L120.83 143.31C121.14 142.99 121.37 142.63 121.53 142.23C121.69 141.83 121.75 141.41 121.71 140.95C121.68 140.5 121.52 140.03 121.25 139.55C120.92 138.97 120.48 138.55 119.96 138.27C119.43 138 118.82 137.9 118.14 137.97C117.45 138.04 116.7 138.31 115.89 138.78L113.14 140.37C113.14 140.37 113.17 140.41 113.23 140.49C113.28 140.57 113.35 140.67 113.44 140.8C113.53 140.93 113.63 141.08 113.73 141.24C113.84 141.41 113.94 141.58 114.05 141.76L118.89 150.15L120.34 149.32C120.34 149.32 120.31 149.28 120.26 149.21C120.21 149.14 120.15 149.05 120.06 148.92C119.98 148.8 119.89 148.67 119.8 148.52C119.7 148.37 119.61 148.21 119.51 148.05L118.01 145.45L119.83 144.4L124.37 147.07L125.92 146.08C125.92 146.08 125.85 146.05 125.72 145.99C125.58 145.95 125.41 145.87 125.21 145.77ZM119.89 142.72C119.66 143.07 119.33 143.38 118.87 143.64L117.44 144.47L115.17 140.54L116.26 139.91C116.85 139.57 117.37 139.38 117.83 139.33C118.29 139.28 118.69 139.35 119.03 139.55C119.37 139.75 119.65 140.04 119.88 140.44C120.11 140.83 120.22 141.22 120.22 141.61C120.22 142 120.11 142.37 119.89 142.72Z" fill="white" fill-opacity="0.6"/>
<path d="M98.9202 145.89C98.9302 146.15 98.9402 146.41 98.9302 146.68C98.9202 146.94 98.9102 147.22 98.8802 147.51C98.8502 147.8 98.8202 148.11 98.7702 148.45L97.9902 154.35C97.9602 154.59 97.9302 154.81 97.9202 155.03C97.9002 155.25 97.8902 155.43 97.8902 155.6C97.8902 155.77 97.8902 155.9 97.8902 155.99C97.8902 156.09 97.8902 156.13 97.8902 156.14L97.8302 156.15C97.8302 156.14 97.7902 156.07 97.7302 155.92C97.6602 155.77 97.5702 155.57 97.4502 155.33C97.3302 155.08 97.1802 154.82 97.0102 154.53L92.5502 147.11L90.9302 147.52C90.9302 147.52 90.9802 147.59 91.0802 147.72C91.1802 147.85 91.3202 148.05 91.4902 148.31C91.6602 148.57 91.8602 148.88 92.0802 149.24L97.3202 157.84L98.7202 157.47L100.1 148.62C100.16 148.24 100.21 147.89 100.25 147.55C100.29 147.22 100.32 146.89 100.33 146.58C100.34 146.26 100.34 145.95 100.32 145.62L98.9202 145.89Z" fill="white" fill-opacity="0.6"/>
<path d="M113.09 151.59C112.9 151.69 112.61 151.83 112.23 152L108.49 153.56L107 149.86L111.17 148.32L110.72 147L106.56 148.77L105.1 145.15L108.53 143.82C108.71 143.75 108.89 143.68 109.07 143.63C109.25 143.57 109.41 143.52 109.55 143.47C109.69 143.42 109.81 143.39 109.89 143.36C109.97 143.34 110.02 143.32 110.02 143.32L109.62 142.1L103.12 144.73C103.12 144.73 103.14 144.77 103.19 144.86C103.23 144.94 103.29 145.05 103.36 145.19C103.43 145.33 103.51 145.49 103.59 145.67C103.67 145.85 103.75 146.03 103.83 146.23L107.46 155.23L113.8 152.67L113.39 151.44C113.38 151.43 113.28 151.48 113.09 151.59Z" fill="white" fill-opacity="0.6"/>
<path fill-rule="evenodd" clip-rule="evenodd" d="M14.2 98C14.98 98 15.61 98.63 15.61 99.41C15.61 100.19 14.98 100.82 14.2 100.82C13.42 100.82 12.79 100.19 12.79 99.41C12.79 98.63 13.42 98 14.2 98Z" fill="white" fill-opacity="0.6"/>
<path fill-rule="evenodd" clip-rule="evenodd" d="M151.8 98C152.58 98 153.21 98.63 153.21 99.41C153.21 100.19 152.58 100.82 151.8 100.82C151.02 100.82 150.39 100.19 150.39 99.41C150.39 98.63 151.02 98 151.8 98Z" fill="white" fill-opacity="0.6"/>
<path d="M84.0696 38.6102V39.6602H89.5297V38.6102H87.7797V28.5103H87.5297L83.6597 29.4002L83.7396 30.2303L86.2296 30.0103V38.6102H84.0696Z" fill="white" fill-opacity="0.6"/>
<path d="M97.6497 29.47L97.4896 28.27C96.1196 28.43 94.9697 28.79 94.0297 29.35C93.0897 29.91 92.3696 30.68 91.8796 31.67C91.3896 32.66 91.1496 33.88 91.1396 35.33C91.1396 35.97 91.2196 36.56 91.3896 37.1C91.5596 37.64 91.7996 38.12 92.1096 38.52C92.4296 38.92 92.8096 39.24 93.2596 39.47C93.7096 39.69 94.2197 39.81 94.7897 39.81C95.3997 39.81 95.9296 39.71 96.3896 39.51C96.8496 39.32 97.2297 39.05 97.5397 38.71C97.8497 38.37 98.0696 37.98 98.2296 37.53C98.3896 37.09 98.4597 36.61 98.4597 36.11C98.4597 35.59 98.3797 35.13 98.2197 34.73C98.0597 34.33 97.8496 33.99 97.5696 33.7C97.2896 33.42 96.9796 33.21 96.6096 33.06C96.2496 32.92 95.8596 32.84 95.4396 32.84C95.0296 32.84 94.6497 32.89 94.2897 32.99C93.9297 33.09 93.6097 33.24 93.3297 33.43C93.0497 33.62 92.8096 33.86 92.6296 34.13C92.6996 33.46 92.8496 32.88 93.0696 32.39C93.2896 31.9 93.5596 31.48 93.8896 31.13C94.2196 30.79 94.5896 30.5 94.9996 30.28C95.4096 30.06 95.8397 29.88 96.2897 29.75C96.7397 29.64 97.1897 29.54 97.6497 29.47ZM92.8997 36.4C92.8997 36.08 92.9397 35.78 93.0297 35.51C93.1197 35.23 93.2496 34.99 93.4196 34.78C93.5996 34.57 93.8197 34.4 94.0797 34.28C94.3397 34.16 94.6496 34.1 95.0096 34.1C95.4096 34.1 95.7497 34.2 96.0397 34.38C96.3197 34.56 96.5396 34.82 96.6896 35.15C96.8396 35.48 96.9196 35.86 96.9196 36.29C96.9196 36.76 96.8496 37.17 96.6996 37.52C96.5596 37.87 96.3297 38.15 96.0297 38.34C95.7297 38.53 95.3396 38.63 94.8696 38.64C94.5496 38.64 94.2697 38.57 94.0197 38.44C93.7797 38.31 93.5697 38.14 93.3997 37.92C93.2297 37.7 93.1097 37.46 93.0197 37.2C92.9397 36.94 92.8997 36.68 92.8997 36.4Z" fill="white" fill-opacity="0.6"/>
<path d="M67.9598 38.6102V39.6602H73.4198V38.6102H71.6698V28.5103H71.4099L67.5498 29.4002L67.6298 30.2303L70.1198 30.0103V38.6102H67.9598Z" fill="white" fill-opacity="0.6"/>
<path d="M75.6799 38.7199L75.8399 39.9199C77.2099 39.7599 78.3599 39.3999 79.2999 38.8399C80.2399 38.2799 80.9599 37.5099 81.4499 36.5199C81.9399 35.5299 82.1799 34.3099 82.1899 32.8599C82.1899 32.2199 82.1099 31.6299 81.9399 31.0899C81.7699 30.5499 81.5299 30.0699 81.2199 29.6699C80.8999 29.2699 80.5199 28.9499 80.0699 28.7199C79.6199 28.4999 79.1099 28.3799 78.5399 28.3799C77.9299 28.3799 77.3999 28.4799 76.9399 28.6799C76.4799 28.8699 76.0999 29.1399 75.7999 29.4799C75.4899 29.8199 75.2599 30.2099 75.1099 30.6599C74.9499 31.0999 74.8799 31.5699 74.8799 32.0799C74.8799 32.5999 74.9599 33.0599 75.1199 33.4599C75.2799 33.8599 75.4899 34.1999 75.7699 34.4899C76.0499 34.7699 76.3599 34.9799 76.7299 35.1299C77.0899 35.2799 77.4799 35.3499 77.8999 35.3499C78.3099 35.3499 78.6899 35.2999 79.0499 35.1999C79.4099 35.0999 79.7299 34.9499 80.0099 34.7599C80.2899 34.5699 80.5199 34.3299 80.6999 34.0599C80.6299 34.7299 80.4899 35.3099 80.2699 35.8099C80.0499 36.2999 79.7799 36.7199 79.4499 37.0699C79.1199 37.4199 78.7499 37.6999 78.3499 37.9199C77.9399 38.1399 77.5099 38.3199 77.0599 38.4499C76.5999 38.5699 76.1399 38.6599 75.6799 38.7199ZM80.4299 31.8299C80.4299 32.1399 80.3899 32.4299 80.2999 32.6999C80.2099 32.9699 80.0799 33.2199 79.9099 33.4199C79.7299 33.6299 79.5099 33.7999 79.2499 33.9099C78.9799 34.0299 78.6699 34.0899 78.3199 34.0899C77.9199 34.0899 77.5799 33.9899 77.2899 33.7999C77.0099 33.6099 76.7899 33.3399 76.6399 32.9899C76.4899 32.6499 76.4099 32.2399 76.4099 31.7799C76.4099 31.3399 76.4899 30.9599 76.6399 30.6199C76.7899 30.2899 77.0199 30.0199 77.3199 29.8299C77.6299 29.6399 77.9999 29.5399 78.4599 29.5399C78.7799 29.5399 79.0699 29.6099 79.3199 29.7399C79.5599 29.8699 79.7699 30.0399 79.9399 30.2599C80.1099 30.4799 80.2299 30.7199 80.3099 30.9899C80.3899 31.2699 80.4299 31.5499 80.4299 31.8299Z" fill="white" fill-opacity="0.6"/>
<path d="M43.8 42.46H83.0001H122.2H122.96V43.22V97.41C122.96 108.44 118.49 118.43 111.26 125.66C104.03 132.89 94.0401 137.36 83.0101 137.36C71.9801 137.36 61.9901 132.89 54.7601 125.66C47.5301 118.43 43.0601 108.44 43.0601 97.41V43.22V42.46H43.8ZM83.0001 43.97H44.5601V97.41C44.5601 108.02 48.8601 117.63 55.8201 124.59C62.7801 131.55 72.3901 135.85 83.0001 135.85C93.6101 135.85 103.22 131.55 110.18 124.59C117.14 117.63 121.44 108.02 121.44 97.41V43.97H83.0001Z" fill="white" fill-opacity="0.6"/>
<path d="M99.7402 103.41H99.7603L100.26 103.54V104.05V125.79V126.6L99.4603 126.44C93.7703 125.28 88.2303 126.17 83.0103 128.45C77.8003 126.17 72.2402 125.29 66.5602 126.44L65.7603 126.6V125.79V104.05V103.54L66.2603 103.41H66.2803C67.0403 103.21 67.8603 103.06 68.7203 102.95C69.5703 102.84 70.4602 102.78 71.3602 102.76C75.7502 102.65 80.5103 103.56 83.0103 105.18C85.5103 103.55 90.2703 102.65 94.6603 102.76C95.5603 102.78 96.4502 102.85 97.3002 102.95C98.1502 103.06 98.9702 103.21 99.7402 103.41ZM68.9603 108.45V109.34C69.7403 109.25 70.5502 109.19 71.3702 109.17C74.6702 109.09 78.1502 109.59 80.6102 110.53V109.59C78.0502 108.68 74.6003 108.2 71.3503 108.28C70.5403 108.3 69.7403 108.36 68.9603 108.45ZM68.9603 112.16V113.05C69.7403 112.96 70.5502 112.9 71.3702 112.88C74.6702 112.8 78.1502 113.3 80.6102 114.24V113.3C78.0502 112.39 74.6003 111.91 71.3503 111.99C70.5403 112.01 69.7403 112.07 68.9603 112.16ZM68.9603 115.87V116.76C69.7403 116.67 70.5502 116.61 71.3702 116.59C74.6702 116.51 78.1502 117 80.6102 117.95V117.01C78.0502 116.1 74.6003 115.62 71.3503 115.7C70.5403 115.73 69.7403 115.78 68.9603 115.87ZM68.9603 119.58V120.47C69.7403 120.38 70.5502 120.32 71.3702 120.3C74.6702 120.22 78.1502 120.71 80.6102 121.66V120.72C78.0502 119.81 74.6003 119.33 71.3503 119.41C70.5403 119.44 69.7403 119.49 68.9603 119.58ZM82.3403 126.73V106.34C80.1003 104.83 75.5902 103.99 71.3802 104.09C70.5202 104.11 69.6802 104.17 68.8802 104.27C68.2602 104.35 67.6603 104.45 67.0903 104.58V125C72.2303 124.11 77.5203 124.77 82.3403 126.73ZM97.0403 109.34V108.45C96.2603 108.36 95.4603 108.3 94.6503 108.29C91.4003 108.21 87.9603 108.68 85.3903 109.6V110.54C87.8503 109.6 91.3302 109.1 94.6302 109.18C95.4502 109.19 96.2603 109.25 97.0403 109.34ZM97.0403 113.05V112.16C96.2603 112.07 95.4603 112.01 94.6503 112C91.4003 111.92 87.9603 112.4 85.3903 113.31V114.25C87.8503 113.31 91.3302 112.81 94.6302 112.89C95.4502 112.9 96.2603 112.96 97.0403 113.05ZM97.0403 116.76V115.87C96.2603 115.78 95.4603 115.72 94.6503 115.71C91.4003 115.63 87.9603 116.1 85.3903 117.02V117.96C87.8503 117.02 91.3302 116.52 94.6302 116.6C95.4502 116.61 96.2603 116.67 97.0403 116.76ZM97.0403 120.48V119.59C96.2603 119.5 95.4603 119.44 94.6503 119.43C91.4003 119.35 87.9603 119.83 85.3903 120.74V121.68C87.8503 120.74 91.3302 120.24 94.6302 120.32C95.4502 120.32 96.2603 120.38 97.0403 120.48ZM98.9202 104.58C98.3502 104.45 97.7502 104.35 97.1302 104.27C96.3302 104.17 95.4802 104.11 94.6302 104.09C90.4202 103.99 85.9202 104.83 83.6702 106.34V126.73C88.4902 124.77 93.7802 124.11 98.9202 125V104.58Z" fill="white" fill-opacity="0.6"/>
<path d="M122.21 96.73H43.79V98.08H122.21V96.73Z" fill="white" fill-opacity="0.6"/>
<path d="M106.53 74.4998L112.89 86.8898L112.96 87.0298V87.1898V95.5098V96.1798H112.29C111.99 96.1798 111.69 96.1798 111.2 96.1698C107.52 96.0998 104.21 95.3397 104.12 87.5497L99.7302 84.5598L99.5902 84.6498C98.7402 85.2298 97.8302 85.7098 96.8902 86.0698C96.0802 86.3798 95.2402 86.5998 94.3702 86.7298L93.4202 91.5398H93.6002C95.2202 91.6298 96.1302 92.3398 96.6302 93.4398C97.1202 94.4998 97.1702 95.8798 97.1702 97.3998V98.0698H96.5002H95.9702H88.3302H87.6602H85.2402H84.5702V97.3998V95.8698V95.2198L84.5602 91.6498H82.6302H81.9602V90.9798V90.9698V90.9498V90.9398V90.9098V90.8498V90.8198V90.7898V90.7798V90.7298L81.9702 90.5998V90.5797V90.5398V90.5098V90.4998V90.4698V90.4598L81.9802 90.3398V90.3098V90.2997V90.2798V90.2498L81.9902 90.1898V90.1698V90.1498L82.0002 90.1198C82.0102 90.0598 82.0202 89.9998 82.0302 89.9398L82.0402 89.9098L82.0502 89.8798L82.0602 89.8498V89.8398L82.0702 89.8198L82.0802 89.7898V89.7798V89.7598L82.1002 89.6998L82.1102 89.6698L82.1202 89.6498V89.6398L82.1502 89.5197L82.1902 89.3998V89.3898C82.2302 89.2698 82.2702 89.1498 82.3202 89.0298C82.4002 88.8298 82.5002 88.6398 82.6002 88.4598C82.8702 87.9798 83.2202 87.5498 83.6202 87.1898C83.7702 87.0598 83.9202 86.9298 84.0802 86.8198H76.7702C76.0602 87.4598 75.2702 87.9597 74.4502 88.2697C74.2702 88.3397 74.0902 88.3998 73.9202 88.4398V91.5197H73.9602C75.8202 91.5197 76.8102 92.2498 77.3602 93.4398C77.8502 94.4998 77.9002 95.8798 77.9002 97.3998V98.0698H77.2302H68.1902H67.5202H56.2602H55.5902V97.3998V91.6498H53.6502H52.9802V90.9798C52.9802 89.4998 53.6202 88.1598 54.6302 87.2298C54.8002 87.0698 54.9802 86.9297 55.1602 86.7997H53.6402H52.9702V86.1298C52.9702 84.6498 53.6102 83.3098 54.6302 82.3798C54.8302 82.1898 55.0402 82.0298 55.2602 81.8798C55.3602 81.8098 55.4702 81.7498 55.5802 81.6798V78.8198H54.7802H54.3502L54.1702 78.4298C53.3702 76.6597 52.9702 74.6698 52.9702 72.6298C52.9702 69.8798 53.7002 67.0297 55.1302 64.5497C56.5702 62.0597 58.7202 59.9398 61.5702 58.6598C63.4302 57.8198 65.5902 57.3297 68.0402 57.3297H81.6202H84.1002H86.1502C86.8502 56.3197 87.7302 55.4498 88.7402 54.7598C88.9402 54.6198 89.1702 54.4898 89.4102 54.3498C89.8802 54.0898 90.3702 53.8598 90.8802 53.6798C90.3702 52.5998 90.3902 51.5997 90.7202 50.7997C90.9502 50.2497 91.3302 49.8097 91.8002 49.4897C92.2702 49.1797 92.8302 48.9997 93.4202 48.9897C94.5702 48.9697 95.8402 49.5598 96.7702 51.0298H100.94H105.11C106.04 49.5598 107.3 48.9697 108.45 48.9897C109.04 48.9997 109.61 49.1797 110.07 49.4897C110.54 49.7997 110.92 50.2497 111.15 50.7997C111.58 51.8097 111.49 53.1397 110.48 54.5497C114.64 62.4297 111.99 66.6998 106.99 70.8098V70.9198C107.03 72.1198 106.84 73.3198 106.53 74.4998ZM75.5302 94.3297V96.7397H76.6102C76.5902 95.6497 76.5102 94.6898 76.2002 93.9998C75.8802 93.2998 75.2402 92.8698 74.0202 92.8698H73.3102H72.6402V92.1998V87.9098V87.3398L73.2102 87.2498H73.2202C73.3502 87.2298 73.4802 87.1998 73.6302 87.1598C73.7802 87.1198 73.9102 87.0798 74.0402 87.0298C74.1902 86.9698 74.3502 86.9097 74.5002 86.8297H69.5102C68.8002 87.4697 68.0102 87.9698 67.1902 88.2798C67.0102 88.3498 66.8302 88.4098 66.6502 88.4498C66.5902 88.4698 66.5402 88.4798 66.4802 88.4897L65.2702 91.5998C66.5302 91.8098 67.2802 92.4798 67.7202 93.4398C68.1402 94.3498 68.2402 95.4798 68.2602 96.7298H73.1302V94.3198H73.8002V96.7298H74.8802V94.3198H75.5302V94.3297ZM65.6902 94.3297V96.7397H66.7702H66.9002C66.8802 95.6497 66.8002 94.6898 66.4902 93.9998C66.1702 93.2998 65.5302 92.8597 64.3102 92.8597H63.3302L63.6802 91.9498L65.3502 87.6598L65.4902 87.2997L65.7702 87.2598C67.8402 86.6898 69.4902 85.2298 70.3502 83.3698C70.5202 83.0098 70.6502 82.6297 70.7602 82.2397C70.9202 81.6398 71.0102 81.0098 71.0102 80.3698V80.3597C71.0102 78.9697 70.6002 77.6198 69.8602 76.4698C69.7102 76.2398 69.5602 76.0298 69.3902 75.8198C69.2602 75.6598 69.1202 75.4998 68.9702 75.3498H70.7102C70.8002 75.4798 70.8902 75.6097 70.9802 75.7397C71.8602 77.0997 72.3502 78.7097 72.3502 80.3597V80.3698C72.3502 81.1398 72.2502 81.8798 72.0602 82.5898C71.9402 83.0498 71.7702 83.4998 71.5702 83.9298C71.3102 84.4798 71.0002 84.9997 70.6402 85.4897H82.0202C82.0802 85.0298 82.1902 84.5898 82.3602 84.1798C82.4402 83.9798 82.5402 83.7897 82.6402 83.6097C83.1002 82.7997 83.7702 82.1298 84.5802 81.6798L84.5402 75.3498H85.8702L85.9102 82.0898V82.5197L85.5102 82.6998C84.7802 83.0298 84.1802 83.5798 83.7902 84.2697C83.7102 84.4097 83.6402 84.5498 83.5902 84.6898C83.4902 84.9398 83.4102 85.1898 83.3602 85.4598H85.2402H85.9102V86.1298V86.9498V87.3798L85.5502 87.5398L85.5202 87.5497L85.5002 87.5598L85.4102 87.5998H85.4002H85.3902H85.3802H85.3702H85.3602L85.3202 87.6198L85.2902 87.6398L85.2602 87.6598L85.2302 87.6798H85.2202H85.2102H85.2002H85.1902L85.1702 87.6898H85.1602H85.1502H85.1402L85.1302 87.6998H85.1202L85.1002 87.7098H85.0902H85.0802L85.0602 87.7198H85.0502H85.0402H85.0302L85.0202 87.7298H85.0102H85.0002H84.9902L84.9802 87.7397H84.9702L84.9602 87.7498L84.9502 87.7598H84.9402H84.9302L84.9202 87.7697H84.9102H84.9002H84.8902L84.8802 87.7798H84.8702H84.8602H84.8502L84.8402 87.7898H84.8302L84.7702 87.8297L84.7502 87.8498L84.6602 87.9298L84.6502 87.9398L84.6002 87.9798L84.5902 87.9897L84.5502 88.0298L84.5402 88.0398L84.4802 88.0998C84.4302 88.1398 84.3902 88.1798 84.3502 88.2298L84.3102 88.2697L84.3002 88.2798L84.2602 88.3198L84.2402 88.3398L84.2302 88.3498L84.2002 88.3898L84.1802 88.4198L84.1602 88.4498L84.1102 88.5098L84.0202 88.6298C83.9402 88.7398 83.8702 88.8598 83.8002 88.9698C83.7602 89.0398 83.7302 89.0998 83.6902 89.1698V89.1798V89.1898V89.1998L83.6802 89.2098L83.6702 89.2397V89.2498V89.2598L83.6502 89.3098V89.3198V89.3297V89.3398V89.3498V89.3597V89.3698V89.3798V89.3898V89.3998V89.4098L83.6402 89.4498V89.4598V89.4698V89.4798L83.6302 89.5098V89.5197V89.5298V89.5398V89.5497V89.5598L83.5802 89.6998L83.5602 89.7498V89.7598V89.7697V89.7798V89.7898V89.7997L83.5502 89.8297V89.8398L83.5402 89.8798V89.8898V89.8998V89.9098V89.9198L83.5102 90.0398V90.0497V90.0598V90.0698V90.0898V90.0998V90.1097V90.1198V90.1398V90.1498V90.1598H85.3802H86.0402H86.0602V90.8297V95.7198V96.5898H88.4802H90.7302V94.1798H91.4002V96.5898H92.4802V94.1798H93.1502V96.5898H94.2302V94.1798H94.9002V96.5898H95.9802C95.9602 95.4998 95.8802 94.5397 95.5702 93.8597C95.2502 93.1597 94.6102 92.7198 93.3902 92.7198H93.0302H91.9502L92.2502 91.1898L92.6002 89.3998H92.5902L93.1402 86.6698L93.3002 85.8498L93.4002 85.3597L93.6702 84.0298L93.7402 83.6898L94.0602 83.5497C94.6302 83.2997 95.1702 82.9698 95.6602 82.5698C95.7502 82.4998 95.8502 82.4197 95.9402 82.3297C96.0402 82.2397 96.1302 82.1498 96.2102 82.0698C97.1702 81.1098 97.8202 79.9098 98.1202 78.6198C98.1802 78.3598 98.2202 78.0998 98.2502 77.8398C98.2802 77.5698 98.3002 77.2998 98.3002 77.0398V76.8898L98.2802 75.2097H99.6102L99.6202 76.8898V76.9498V77.0398C99.6202 77.3698 99.6002 77.6897 99.5702 77.9897C99.5302 78.2997 99.4802 78.6098 99.4102 78.9198C99.0502 80.4598 98.2702 81.8797 97.1402 83.0197C97.0302 83.1297 96.9202 83.2397 96.8202 83.3297C96.7202 83.4197 96.6002 83.5198 96.4802 83.6198C95.9902 84.0198 95.4502 84.3598 94.8902 84.6298L94.7802 85.1798C95.3802 85.0598 95.9702 84.8898 96.5502 84.6698C97.4002 84.3498 98.2102 83.9098 98.9702 83.3898C102.66 80.8798 105.28 76.3298 105.8 71.7798C104.79 72.5498 103.72 73.3198 102.6 74.1198L101.55 74.8798L101.16 75.1598L100.77 74.8798L99.7202 74.1198C92.2102 68.7198 86.4702 64.5898 91.3802 54.8398C91.0002 54.9898 90.6302 55.1597 90.2702 55.3597C90.0902 55.4597 89.9002 55.5798 89.6902 55.7198C88.7202 56.3698 87.9002 57.2197 87.2702 58.2097L87.0702 58.5197H86.7002H84.2902H81.8102H68.2302C65.9802 58.5197 64.0102 58.9598 62.3102 59.7298C59.7302 60.8998 57.7802 62.8197 56.4702 65.0797C55.1602 67.3497 54.4902 69.9597 54.4902 72.4897C54.4902 74.1897 54.7902 75.8498 55.4002 77.3398H55.8302V75.2097H57.1602V78.2697H57.0902V81.9498V82.3798L56.7002 82.5598H56.6902H56.6802C56.5002 82.6398 56.3202 82.7398 56.1602 82.8498C55.9902 82.9598 55.8302 83.0898 55.6902 83.2098C55.1002 83.7498 54.6802 84.4798 54.5302 85.3098H56.4102H57.0802V85.9798V86.7997V87.2298L56.6902 87.4098H56.6802H56.6702C56.4902 87.4898 56.3102 87.5898 56.1502 87.6998C55.9802 87.8098 55.8202 87.9398 55.6802 88.0598C55.0902 88.5998 54.6702 89.3298 54.5202 90.1598H56.4002H57.0702V90.8297V96.5797H61.6102V94.1698H62.2802V96.5797H63.3602V94.1698H64.0302V96.5797H65.1102V94.1698H65.6902V94.3297ZM110.55 92.4398V94.8098C110.77 94.8198 111 94.8298 111.23 94.8398C111.33 94.8398 111.47 94.8398 111.63 94.8398V87.3498L105.96 76.2898C104.88 79.1498 103.09 81.7798 100.84 83.6898L105.16 86.6298L105.45 86.8297V87.1798C105.45 91.5798 106.55 93.4497 108.14 94.2397V92.4198H108.81V94.5098C109.15 94.6198 109.51 94.6898 109.89 94.7397V92.4298H110.55V92.4398ZM96.0102 59.6498L98.4102 60.7798C98.3502 61.1398 98.2902 61.4998 98.2302 61.8398C97.8302 64.1098 97.5002 65.9598 98.6302 68.3198L98.7802 68.6398H99.1402H102.91H103.27L103.42 68.3198C104.55 65.9598 104.22 64.1098 103.82 61.8398C103.76 61.4898 103.7 61.1298 103.64 60.7798L106.04 59.6398H102.98H102.33L102.42 60.2898C102.51 60.9498 102.61 61.4998 102.7 62.0398C103.05 63.9998 103.33 65.6198 102.54 67.5098H99.5102C98.7202 65.6198 99.0002 63.9998 99.3502 62.0398C99.4402 61.5098 99.5402 60.9498 99.6302 60.2898L99.7202 59.6498H99.0702H96.0102ZM101.02 66.9098L102.25 65.9998L101.78 65.2798H100.26L99.7902 65.9998L101.02 66.9098ZM100.36 73.1998L101.02 73.6798L101.68 73.1998C108.85 68.0398 114.29 64.1298 109.19 54.8198L108.97 54.4198L109.26 54.0698C110.16 52.9798 110.3 51.9998 110.01 51.3198C109.89 51.0298 109.68 50.7797 109.42 50.6097C109.16 50.4397 108.84 50.3297 108.51 50.3297C107.73 50.3097 106.83 50.7997 106.16 52.0197L105.97 52.3698H105.57H101.01H96.4502H96.0502L95.8602 52.0197C95.2002 50.7997 94.3002 50.3097 93.5102 50.3297C93.1802 50.3397 92.8602 50.4397 92.6002 50.6097C92.3402 50.7797 92.1302 51.0298 92.0102 51.3198C91.7202 51.9998 91.8602 52.9698 92.7602 54.0698L93.0502 54.4198L92.8302 54.8198C87.7402 64.1298 93.1802 68.0398 100.36 73.1998Z" fill="white" fill-opacity="0.6"/>
<path fill-rule="evenodd" clip-rule="evenodd" d="M99.72 59.6499C99.44 60.3699 98.71 60.8799 97.86 60.8799C97.01 60.8799 96.29 60.3699 96 59.6499H99.72Z" fill="white" fill-opacity="0.6"/>
<path fill-rule="evenodd" clip-rule="evenodd" d="M106.03 59.6499C105.75 60.3699 105.02 60.8799 104.17 60.8799C103.32 60.8799 102.6 60.3699 102.31 59.6499H106.03Z" fill="white" fill-opacity="0.6"/>
</svg>
