<svg width="22" height="22" viewBox="0 0 22 22" fill="none" xmlns="http://www.w3.org/2000/svg">
<path d="M11.8594 9.88281H10.1406V11.6016H11.8594V9.88281Z" fill="white" fill-opacity="0.6"/>
<path d="M19.4219 1.71875H18.3906V0H16.6719V1.71875H5.32812V0H3.60938V1.71875H2.57812C1.15655 1.71875 0 2.8753 0 4.29688V19.4219C0 20.8435 1.15655 22 2.57812 22H8.29297H8.42188H11.4195C10.8253 21.5096 10.3078 20.9296 9.88707 20.2812H8.42188H8.29297H2.57812C2.10427 20.2812 1.71875 19.8957 1.71875 19.4219V8.07812H20.2812V9.79688V9.88281V9.88707C20.9296 10.3078 21.5096 10.8253 22 11.4195V9.88281V9.79688V4.29688C22 2.8753 20.8435 1.71875 19.4219 1.71875ZM20.2812 6.35938H1.71875V4.29688C1.71875 3.82302 2.10427 3.4375 2.57812 3.4375H3.60938V5.15625H5.32812V3.4375H16.6719V5.15625H18.3906V3.4375H19.4219C19.8957 3.4375 20.2812 3.82302 20.2812 4.29688V6.35938Z" fill="white" fill-opacity="0.6"/>
<path d="M16.1992 10.3984C13.0007 10.3984 10.3984 13.0007 10.3984 16.1992C10.3984 19.3978 13.0007 22 16.1992 22C19.3978 22 22 19.3978 22 16.1992C22 13.0007 19.3978 10.3984 16.1992 10.3984ZM16.1992 20.2812C13.9484 20.2812 12.1172 18.4501 12.1172 16.1992C12.1172 13.9484 13.9484 12.1172 16.1992 12.1172C18.4501 12.1172 20.2812 13.9484 20.2812 16.1992C20.2812 18.4501 18.4501 20.2812 16.1992 20.2812Z" fill="white" fill-opacity="0.6"/>
<path d="M17.0156 13.3203H15.2969V17.0586H18.4766V15.3398H17.0156V13.3203Z" fill="white" fill-opacity="0.6"/>
<path d="M8.42188 13.3203H6.70312V15.0391H8.42188V13.3203Z" fill="white" fill-opacity="0.6"/>
<path d="M4.98438 13.3203H3.26562V15.0391H4.98438V13.3203Z" fill="white" fill-opacity="0.6"/>
<path d="M4.98438 9.88281H3.26562V11.6016H4.98438V9.88281Z" fill="white" fill-opacity="0.6"/>
<path d="M4.98438 16.7578H3.26562V18.4766H4.98438V16.7578Z" fill="white" fill-opacity="0.6"/>
<path d="M8.42188 9.88281H6.70312V11.6016H8.42188V9.88281Z" fill="white" fill-opacity="0.6"/>
<path d="M8.42188 16.7578H6.70312V18.4766H8.42188V16.7578Z" fill="white" fill-opacity="0.6"/>
</svg>
